<svg width="16" height="10" viewBox="0 0 16 10" fill="none" xmlns="http://www.w3.org/2000/svg">
<path opacity="0.5" d="M15.3424 0.900036C15.2531 0.808173 15.1464 0.734917 15.0286 0.684499C14.9108 0.634081 14.7842 0.6075 14.6561 0.606291C14.528 0.605082 14.4009 0.62927 14.2821 0.677457C14.1634 0.725643 14.0554 0.796875 13.9644 0.887036L8.00038 6.77804L2.15338 0.897036C1.96574 0.706213 1.70998 0.597745 1.44237 0.595495C1.17475 0.593244 0.917205 0.697395 0.726382 0.885036C0.535559 1.07268 0.427091 1.32844 0.42484 1.59605C0.42259 1.86367 0.526741 2.12121 0.714382 2.31204L8.00038 9.80004L15.3424 2.25404C15.5186 2.07294 15.6172 1.83023 15.6172 1.57754C15.6172 1.32485 15.5186 1.08213 15.3424 0.901036V0.900036Z" fill="#A7A7A7"/>
</svg>
