<svg width="17" height="24" viewBox="0 0 17 24" fill="none" xmlns="http://www.w3.org/2000/svg">
<path d="M16.4507 21.2372V23.6C16.4507 23.8209 16.2716 24 16.0507 24C15.8298 24 15.6507 23.8209 15.6507 23.6V21.2372C15.6507 19.3975 14.1619 17.9086 12.322 17.9086C11.4515 17.9086 10.6616 17.4651 10.2091 16.7222C10.0942 16.5336 10.154 16.2875 10.3426 16.1725C10.5312 16.0575 10.7774 16.1173 10.8923 16.306C11.1985 16.8085 11.7329 17.1085 12.322 17.1085C14.6039 17.1085 16.4507 18.9551 16.4507 21.2372ZM9.77719 18.1398L8.35069 19.2441L5.92529 17.3664C6.44884 16.9458 6.78739 16.3341 6.84224 15.6393C7.32089 15.7802 7.82709 15.8562 8.35074 15.8562C11.3007 15.8562 13.7007 13.4562 13.7007 10.5062C13.7007 10.4751 13.7014 7.7056 13.6994 7.6746C13.6858 7.4582 13.5054 7.29995 13.3007 7.29995C13.2322 7.29995 12.7394 7.39745 12.2569 7.1072C11.5045 6.65455 11.5007 5.66235 11.5007 5.6524C11.5027 5.3274 11.1352 5.1356 10.8696 5.32345C9.22204 6.4898 7.29284 7.2807 5.19799 7.57395C4.97924 7.6046 4.82669 7.80675 4.85734 8.02555C4.88534 8.22555 5.05664 8.37015 5.25299 8.37015C5.31599 8.37015 6.61299 8.2114 8.08734 7.6759C9.03724 7.3309 9.94739 6.8807 10.8007 6.33425C11.0956 7.44055 11.9224 8.056 12.9008 8.11155V10.5062C12.9008 13.0151 10.8597 15.0562 8.35079 15.0562C5.84189 15.0562 3.80079 13.0151 3.80079 10.5062V7.7C3.80079 7.4791 3.62169 7.3 3.40079 7.3C3.17989 7.3 3.00079 7.4791 3.00079 7.7V10.5063C3.00079 12.6334 4.24869 14.4743 6.05079 15.336V15.4415C6.05079 16.3636 5.30359 17.1085 4.37944 17.1085C3.87339 17.1085 3.37479 17.2001 2.90314 17.3804L2.64489 17.1749C0.618344 15.5619 0.238793 12.7145 1.62084 10.6399C2.20984 9.7558 2.55079 8.6983 2.55079 7.56685V5.4002C2.55079 2.86365 4.61434 0.8 7.15079 0.8H9.55079C12.0872 0.8 14.1508 2.86355 14.1508 5.4V7.56665C14.1508 8.6672 14.4708 9.7277 15.0763 10.6335C16.1837 12.29 16.1815 14.4642 15.0373 16.1245C14.9119 16.3064 14.9577 16.5556 15.1396 16.6809C15.3215 16.8062 15.5706 16.7604 15.6959 16.5785C17.028 14.6458 17.0295 12.1158 15.7414 10.1888C15.2241 9.4151 14.9507 8.5084 14.9507 7.56665V5.4C14.9507 2.42245 12.5283 0 9.55075 0H7.15074C4.17319 0 1.75074 2.42255 1.75074 5.4002V7.56665C1.75074 8.50565 1.47559 9.415 0.954943 10.1965C-0.657807 12.6176 -0.200756 15.9104 2.12129 17.7801C0.980594 18.5284 0.250743 19.7992 0.250743 21.2372V23.6C0.250743 23.8209 0.429843 24 0.650743 24C0.871643 24 1.05074 23.8209 1.05074 23.6V21.2372C1.05074 19.3974 2.53949 17.9086 4.37939 17.9086C4.64449 17.9086 4.90639 17.8666 5.15754 17.7837L8.10584 20.0663C8.25004 20.1779 8.45144 20.1779 8.59559 20.0663L10.2669 18.7723C10.4416 18.6371 10.4736 18.3858 10.3383 18.2111C10.2031 18.0366 9.95194 18.0045 9.77719 18.1398Z" fill="white"/>
</svg>
