<svg width="18" height="18" viewBox="0 0 18 18" fill="none" xmlns="http://www.w3.org/2000/svg">
<path d="M9.00301 4.37796C6.45081 4.37796 4.38459 6.44643 4.38459 8.99638C4.38459 11.5486 6.45306 13.6148 9.00301 13.6148C11.5552 13.6148 13.6214 11.5463 13.6214 8.99638C13.6214 6.44418 11.553 4.37796 9.00301 4.37796ZM9.00301 11.9941C7.34629 11.9941 6.00531 10.6524 6.00531 8.99638C6.00531 7.34041 7.34704 5.99868 9.00301 5.99868C10.659 5.99868 12.0007 7.34041 12.0007 8.99638C12.0015 10.6524 10.6597 11.9941 9.00301 11.9941Z" fill="white"/>
<path d="M12.7109 0.056539C11.055 -0.0207096 6.9533 -0.0169597 5.29583 0.056539C3.83935 0.124788 2.55463 0.476532 1.51889 1.51226C-0.212076 3.24323 0.00917029 5.57569 0.00917029 8.99638C0.00917029 12.4973 -0.185826 14.7758 1.51889 16.4805C3.25661 18.2175 5.62282 17.9902 9.00301 17.9902C12.471 17.9902 13.6679 17.9925 14.8942 17.5177C16.5614 16.8705 17.8199 15.3803 17.9429 12.7036C18.0209 11.0468 18.0164 6.94592 17.9429 5.28845C17.7944 2.12875 16.0986 0.212536 12.7109 0.056539ZM15.3322 15.3353C14.1974 16.47 12.6232 16.3688 8.98126 16.3688C5.23133 16.3688 3.7276 16.4243 2.63037 15.324C1.36665 14.0663 1.59539 12.0466 1.59539 8.98438C1.59539 4.8407 1.17015 1.85651 5.32883 1.64351C6.28431 1.60976 6.56556 1.59851 8.97076 1.59851L9.00451 1.62101C13.0012 1.62101 16.1369 1.20252 16.3251 5.36045C16.3679 6.30918 16.3776 6.59417 16.3776 8.99563C16.3769 12.7021 16.4474 14.2148 15.3322 15.3353Z" fill="white"/>
<path d="M13.8044 5.27495C14.4005 5.27495 14.8837 4.79176 14.8837 4.19572C14.8837 3.59967 14.4005 3.11649 13.8044 3.11649C13.2084 3.11649 12.7252 3.59967 12.7252 4.19572C12.7252 4.79176 13.2084 5.27495 13.8044 5.27495Z" fill="white"/>
</svg>
