<svg width="48" height="20" fill="none" xmlns="http://www.w3.org/2000/svg"><path fill-rule="evenodd" clip-rule="evenodd" d="M14 4.8c0 2.8-2 5-4.5 5-2.4 0-4.5-2.2-4.5-5C5 2.1 7 0 9.5 0 12 0 14 2 14 4.8zM0 18.5c0 1 .6 1.5 2.4 1.5h14.2c1.8 0 2.4-.5 2.4-1.5 0-2.9-3.7-6.8-9.5-6.8S0 15.7 0 18.5z" fill="#CCC"/><path fill-rule="evenodd" clip-rule="evenodd" d="M43 4.8c0 2.8-2 5-4.5 5-2.4 0-4.5-2.2-4.5-5C34 2.1 36 0 38.5 0 41 0 43 2 43 4.8zM29 18.5c0 1 .6 1.5 2.4 1.5h14.2c1.8 0 2.4-.5 2.4-1.5 0-2.9-3.7-6.8-9.5-6.8s-9.5 4-9.5 6.8z" fill="#CB11AB"/></svg>