<svg width="56" height="22" fill="none" xmlns="http://www.w3.org/2000/svg"><path fill-rule="evenodd" clip-rule="evenodd" d="M20.8 5.7c0 1.2-.4 2.4-1.1 3.3l3 3a1 1 0 01-1.3 1.3l-3-3c-1 .7-2.1 1-3.3 1a5.7 5.7 0 115.7-5.6zm-2.2 0a3.5 3.5 0 11-7 0 3.5 3.5 0 017 0zM14.5 13l1.5-.2V19a3 3 0 01-3 3H3a3 3 0 01-3-3V9a3 3 0 013-3h4c.3 3.9 3.5 7 7.5 7zM3.8 15a1 1 0 110-2h4.3a1 1 0 010 2H3.8zm-1-5.2c0 .5.4 1 1 1h1.3a1 1 0 100-2H3.8a1 1 0 00-1 1zm1 9.4a1 1 0 110-2h8.4a1 1 0 110 2H3.8z" fill="#CCC"/><path fill-rule="evenodd" clip-rule="evenodd" d="M53.8 5.7c0 1.2-.4 2.4-1.1 3.3l3 3a1 1 0 01-1.3 1.3l-3-3c-1 .7-2.1 1-3.3 1a5.7 5.7 0 115.7-5.6zm-2.2 0a3.5 3.5 0 11-7 0 3.5 3.5 0 017 0zM47.5 13l1.5-.2V19a3 3 0 01-3 3H36a3 3 0 01-3-3V9a3 3 0 013-3h4c.3 3.9 3.5 7 7.5 7zm-10.7 2a1 1 0 110-2h4.3a1 1 0 010 2h-4.3zm-1-5.2c0 .5.4 1 1 1h1.3a1 1 0 100-2h-1.3a1 1 0 00-1 1zm1 9.4a1 1 0 110-2h8.4a1 1 0 110 2h-8.4z" fill="#CB11AB"/></svg>