<svg width="19" height="20" viewBox="0 0 19 20" fill="none" xmlns="http://www.w3.org/2000/svg">
<path d="M18.13 11.5783C18.7261 6.56022 17.8436 3.39218 16.2517 1.95928L16.2525 1.95845C13.6831 -0.488562 5.00575 -0.850743 1.93179 2.06835C0.551344 3.49626 0.0651064 5.59191 0.0118201 8.18629C-0.0414663 10.7815 -0.104744 15.643 4.42543 16.9619H4.42959L4.42543 18.9759C4.42543 18.9759 4.39462 19.7919 4.91583 19.9559C5.51197 20.1491 5.78173 19.7702 7.63593 17.5555C10.7365 17.8245 13.1178 17.2083 13.3884 17.1184C14.0145 16.9086 17.5572 16.4398 18.13 11.5783ZM7.94149 16.1384C7.94149 16.1384 5.97906 18.5854 5.36876 19.2207C5.16894 19.4272 4.94996 19.4081 4.95329 18.9984C4.95329 18.7295 4.96828 15.6547 4.96828 15.6547C1.1275 14.554 1.35397 10.4143 1.3956 8.24873C1.43723 6.08231 1.83355 4.30804 3.00252 3.11326C5.6993 0.584658 13.3068 1.14999 15.245 2.97172C17.6146 5.07237 16.7712 11.0071 16.7762 11.2095C16.2891 15.2675 13.4183 15.5248 12.8905 15.7005C12.6648 15.7754 10.5708 16.3141 7.94149 16.1384Z" fill="white"/>
<path d="M9.0272 3.58867C8.70665 3.58867 8.70665 4.08823 9.0272 4.0924C11.5142 4.11155 13.5624 5.84502 13.5848 9.02471C13.5848 9.36025 14.0761 9.35609 14.0719 9.02055H14.0711C14.0444 5.59441 11.8081 3.60782 9.0272 3.58867Z" fill="white"/>
<path d="M12.2985 8.49768C12.291 8.82905 12.7814 8.84487 12.7856 8.50933C12.8263 6.62017 11.6615 5.06404 9.47264 4.90002C9.15209 4.87671 9.11879 5.38043 9.4385 5.40374C11.3368 5.54778 12.3368 6.8433 12.2985 8.49768Z" fill="white"/>
<path d="M11.7739 10.6466C11.3626 10.4085 10.9438 10.5567 10.7707 10.7907L10.4085 11.2594C10.2245 11.4975 9.88061 11.4659 9.88061 11.4659C7.37116 10.8023 6.70009 8.1763 6.70009 8.1763C6.70009 8.1763 6.66928 7.82078 6.89908 7.63011L7.35201 7.25544C7.57848 7.0756 7.72168 6.64265 7.49106 6.21719C6.87493 5.104 6.46113 4.72018 6.25048 4.42544C6.02901 4.14818 5.69597 4.08574 5.34961 4.27307H5.34212C4.62192 4.69437 3.83345 5.48284 4.08573 6.29462C4.51618 7.15053 5.30715 9.87896 7.82826 11.9405C9.01305 12.9154 10.8881 13.9146 11.684 14.1452L11.6915 14.1569C12.4758 14.4183 13.2385 13.599 13.6456 12.8572V12.8513C13.8263 12.4925 13.7664 12.1528 13.5024 11.9305C13.0345 11.4742 12.3285 10.9705 11.7739 10.6466Z" fill="white"/>
<path d="M9.81567 6.75838C10.6158 6.805 11.0038 7.22297 11.0454 8.08138C11.0604 8.41692 11.5475 8.3936 11.5325 8.05807C11.4792 6.93739 10.8947 6.31294 9.84232 6.25466C9.52176 6.23551 9.49179 6.73923 9.81567 6.75838Z" fill="white"/>
</svg>
