<svg width="18" height="18" viewBox="0 0 18 18" fill="none" xmlns="http://www.w3.org/2000/svg">
<path d="M13.13 10.7304L13.1233 10.7866C11.474 9.96464 11.3015 9.85515 11.0885 10.1746C10.9408 10.3959 10.5103 10.8976 10.3806 11.0461C10.2493 11.1924 10.1188 11.2036 9.89607 11.1024C9.67107 10.9899 8.94884 10.7536 8.09385 9.98864C7.42787 9.3924 6.98087 8.66117 6.84888 8.43617C6.62913 8.05668 7.08887 8.00268 7.50736 7.21069C7.58236 7.0532 7.54411 6.92945 7.48861 6.8177C7.43237 6.7052 6.98462 5.60272 6.79713 5.16323C6.61713 4.72524 6.43188 4.78074 6.29314 4.78074C5.86114 4.74324 5.5454 4.74924 5.26715 5.03873C4.05668 6.36921 4.36192 7.74168 5.39765 9.20116C7.43312 11.8651 8.5176 12.3556 10.5006 13.0366C11.0361 13.2068 11.5243 13.1828 11.9105 13.1273C12.341 13.0591 13.2358 12.5866 13.4225 12.0579C13.6138 11.5291 13.6138 11.0904 13.5575 10.9891C13.502 10.8879 13.355 10.8316 13.13 10.7304Z" fill="white"/>
<path d="M15.3897 2.58703C9.62308 -2.98762 0.0794986 1.05556 0.0757486 8.91991C0.0757486 10.4919 0.487491 12.0249 1.27198 13.3786L0 18L4.75116 16.761C10.6798 19.9635 17.9967 15.711 17.9997 8.92441C17.9997 6.54246 17.0697 4.30075 15.3785 2.61628L15.3897 2.58703ZM16.5012 8.89966C16.4967 14.6243 10.2126 18.1995 5.2424 15.2776L4.97241 15.1171L2.15996 15.8483L2.9137 13.1146L2.73445 12.8333C-0.358494 7.90968 3.19494 1.4748 9.05384 1.4748C11.0443 1.4748 12.9125 2.25103 14.3195 3.65726C15.7257 5.05148 16.5012 6.9197 16.5012 8.89966Z" fill="white"/>
</svg>
